<mxfile host="app.diagrams.net" modified="2023-10-13T14:40:34.104Z" agent="Mozilla/5.0 (Windows NT 10.0; Win64; x64) AppleWebKit/537.36 (KHTML, like Gecko) Chrome/117.0.0.0 Safari/537.36" etag="TlWTY0gWlf8TAZkBvtmh" version="22.0.4" type="github">
  <diagram id="R2lEEEUBdFMjLlhIrx00" name="Page-1">
    <mxGraphModel dx="815" dy="759" grid="1" gridSize="10" guides="1" tooltips="1" connect="1" arrows="1" fold="1" page="1" pageScale="1" pageWidth="850" pageHeight="1100" math="0" shadow="0" extFonts="Permanent Marker^https://fonts.googleapis.com/css?family=Permanent+Marker">
      <root>
        <mxCell id="0" />
        <mxCell id="1" parent="0" />
        <mxCell id="lx4J0f5Dci1dJE6zhEqJ-1" value="Empresa&lt;br&gt;" style="whiteSpace=wrap;html=1;align=center;" parent="1" vertex="1">
          <mxGeometry x="160" y="410" width="100" height="40" as="geometry" />
        </mxCell>
        <mxCell id="xqQnOmF76TvjBO3x-wyy-10" style="edgeStyle=orthogonalEdgeStyle;rounded=0;orthogonalLoop=1;jettySize=auto;html=1;entryX=1;entryY=0.5;entryDx=0;entryDy=0;" edge="1" parent="1" source="lx4J0f5Dci1dJE6zhEqJ-2" target="xqQnOmF76TvjBO3x-wyy-3">
          <mxGeometry relative="1" as="geometry" />
        </mxCell>
        <mxCell id="lx4J0f5Dci1dJE6zhEqJ-2" value="Proyecto" style="whiteSpace=wrap;html=1;align=center;" parent="1" vertex="1">
          <mxGeometry x="500" y="410" width="100" height="40" as="geometry" />
        </mxCell>
        <mxCell id="lx4J0f5Dci1dJE6zhEqJ-3" value="Trabajador" style="whiteSpace=wrap;html=1;align=center;" parent="1" vertex="1">
          <mxGeometry x="500" y="220" width="100" height="40" as="geometry" />
        </mxCell>
        <mxCell id="lx4J0f5Dci1dJE6zhEqJ-4" value="cif" style="ellipse;whiteSpace=wrap;html=1;align=center;fontStyle=4" parent="1" vertex="1">
          <mxGeometry x="100" y="470" width="100" height="40" as="geometry" />
        </mxCell>
        <mxCell id="lx4J0f5Dci1dJE6zhEqJ-5" value="nombre" style="ellipse;whiteSpace=wrap;html=1;align=center;fontStyle=0" parent="1" vertex="1">
          <mxGeometry x="220" y="470" width="100" height="40" as="geometry" />
        </mxCell>
        <mxCell id="lx4J0f5Dci1dJE6zhEqJ-6" value="direccion" style="ellipse;whiteSpace=wrap;html=1;align=center;fontStyle=0" parent="1" vertex="1">
          <mxGeometry x="100" y="520" width="100" height="40" as="geometry" />
        </mxCell>
        <mxCell id="lx4J0f5Dci1dJE6zhEqJ-7" value="telefono" style="ellipse;whiteSpace=wrap;html=1;align=center;fontStyle=0" parent="1" vertex="1">
          <mxGeometry x="220" y="520" width="100" height="40" as="geometry" />
        </mxCell>
        <mxCell id="lx4J0f5Dci1dJE6zhEqJ-8" value="coodigo_interno" style="ellipse;whiteSpace=wrap;html=1;align=center;fontStyle=0" parent="1" vertex="1">
          <mxGeometry x="160" y="570" width="100" height="40" as="geometry" />
        </mxCell>
        <mxCell id="lx4J0f5Dci1dJE6zhEqJ-9" value="id_proyecto" style="ellipse;whiteSpace=wrap;html=1;align=center;fontStyle=4" parent="1" vertex="1">
          <mxGeometry x="440" y="470" width="100" height="40" as="geometry" />
        </mxCell>
        <mxCell id="lx4J0f5Dci1dJE6zhEqJ-10" value="fecha_inicio" style="ellipse;whiteSpace=wrap;html=1;align=center;fontStyle=0" parent="1" vertex="1">
          <mxGeometry x="560" y="470" width="100" height="40" as="geometry" />
        </mxCell>
        <mxCell id="lx4J0f5Dci1dJE6zhEqJ-11" value="fecha_fin" style="ellipse;whiteSpace=wrap;html=1;align=center;fontStyle=0" parent="1" vertex="1">
          <mxGeometry x="440" y="520" width="100" height="40" as="geometry" />
        </mxCell>
        <mxCell id="lx4J0f5Dci1dJE6zhEqJ-12" value="fecha_prevista_&lt;br&gt;finalizacion" style="ellipse;whiteSpace=wrap;html=1;align=center;fontStyle=0" parent="1" vertex="1">
          <mxGeometry x="560" y="520" width="100" height="40" as="geometry" />
        </mxCell>
        <mxCell id="lx4J0f5Dci1dJE6zhEqJ-15" value="codigo_trabajador" style="ellipse;whiteSpace=wrap;html=1;align=center;fontStyle=4" parent="1" vertex="1">
          <mxGeometry x="440" y="40" width="100" height="40" as="geometry" />
        </mxCell>
        <mxCell id="lx4J0f5Dci1dJE6zhEqJ-16" value="dni" style="ellipse;whiteSpace=wrap;html=1;align=center;fontStyle=0" parent="1" vertex="1">
          <mxGeometry x="560" y="40" width="100" height="40" as="geometry" />
        </mxCell>
        <mxCell id="lx4J0f5Dci1dJE6zhEqJ-17" value="nombre" style="ellipse;whiteSpace=wrap;html=1;align=center;fontStyle=0" parent="1" vertex="1">
          <mxGeometry x="440" y="90" width="100" height="40" as="geometry" />
        </mxCell>
        <mxCell id="lx4J0f5Dci1dJE6zhEqJ-18" value="apellidos" style="ellipse;whiteSpace=wrap;html=1;align=center;fontStyle=0" parent="1" vertex="1">
          <mxGeometry x="560" y="90" width="100" height="40" as="geometry" />
        </mxCell>
        <mxCell id="lx4J0f5Dci1dJE6zhEqJ-19" value="profesion" style="ellipse;whiteSpace=wrap;html=1;align=center;fontStyle=0" parent="1" vertex="1">
          <mxGeometry x="500" y="140" width="100" height="40" as="geometry" />
        </mxCell>
        <mxCell id="xqQnOmF76TvjBO3x-wyy-6" style="edgeStyle=orthogonalEdgeStyle;rounded=0;orthogonalLoop=1;jettySize=auto;html=1;entryX=0;entryY=0.5;entryDx=0;entryDy=0;" edge="1" parent="1" source="xqQnOmF76TvjBO3x-wyy-1" target="xqQnOmF76TvjBO3x-wyy-5">
          <mxGeometry relative="1" as="geometry" />
        </mxCell>
        <mxCell id="xqQnOmF76TvjBO3x-wyy-1" value="Profesion" style="whiteSpace=wrap;html=1;align=center;" vertex="1" parent="1">
          <mxGeometry x="160" y="220" width="100" height="40" as="geometry" />
        </mxCell>
        <mxCell id="xqQnOmF76TvjBO3x-wyy-14" style="edgeStyle=orthogonalEdgeStyle;rounded=0;orthogonalLoop=1;jettySize=auto;html=1;entryX=1;entryY=0.5;entryDx=0;entryDy=0;" edge="1" parent="1" target="xqQnOmF76TvjBO3x-wyy-4">
          <mxGeometry relative="1" as="geometry">
            <mxPoint x="690" y="340" as="sourcePoint" />
          </mxGeometry>
        </mxCell>
        <mxCell id="xqQnOmF76TvjBO3x-wyy-11" style="edgeStyle=orthogonalEdgeStyle;rounded=0;orthogonalLoop=1;jettySize=auto;html=1;entryX=1;entryY=0.5;entryDx=0;entryDy=0;" edge="1" parent="1" source="xqQnOmF76TvjBO3x-wyy-3" target="lx4J0f5Dci1dJE6zhEqJ-1">
          <mxGeometry relative="1" as="geometry" />
        </mxCell>
        <mxCell id="xqQnOmF76TvjBO3x-wyy-3" value="tener" style="shape=rhombus;perimeter=rhombusPerimeter;whiteSpace=wrap;html=1;align=center;" vertex="1" parent="1">
          <mxGeometry x="320" y="400" width="120" height="60" as="geometry" />
        </mxCell>
        <mxCell id="xqQnOmF76TvjBO3x-wyy-15" style="edgeStyle=orthogonalEdgeStyle;rounded=0;orthogonalLoop=1;jettySize=auto;html=1;entryX=0.5;entryY=1;entryDx=0;entryDy=0;" edge="1" parent="1" source="xqQnOmF76TvjBO3x-wyy-4" target="lx4J0f5Dci1dJE6zhEqJ-3">
          <mxGeometry relative="1" as="geometry" />
        </mxCell>
        <mxCell id="xqQnOmF76TvjBO3x-wyy-16" style="edgeStyle=orthogonalEdgeStyle;rounded=0;orthogonalLoop=1;jettySize=auto;html=1;entryX=0.5;entryY=0;entryDx=0;entryDy=0;" edge="1" parent="1" source="xqQnOmF76TvjBO3x-wyy-4" target="lx4J0f5Dci1dJE6zhEqJ-2">
          <mxGeometry relative="1" as="geometry" />
        </mxCell>
        <mxCell id="xqQnOmF76TvjBO3x-wyy-4" value="asignar" style="shape=rhombus;perimeter=rhombusPerimeter;whiteSpace=wrap;html=1;align=center;" vertex="1" parent="1">
          <mxGeometry x="490" y="310" width="120" height="60" as="geometry" />
        </mxCell>
        <mxCell id="xqQnOmF76TvjBO3x-wyy-7" style="edgeStyle=orthogonalEdgeStyle;rounded=0;orthogonalLoop=1;jettySize=auto;html=1;" edge="1" parent="1" source="xqQnOmF76TvjBO3x-wyy-5" target="lx4J0f5Dci1dJE6zhEqJ-3">
          <mxGeometry relative="1" as="geometry" />
        </mxCell>
        <mxCell id="xqQnOmF76TvjBO3x-wyy-5" value="tener" style="shape=rhombus;perimeter=rhombusPerimeter;whiteSpace=wrap;html=1;align=center;" vertex="1" parent="1">
          <mxGeometry x="320" y="210" width="120" height="60" as="geometry" />
        </mxCell>
        <mxCell id="xqQnOmF76TvjBO3x-wyy-17" value="1 N" style="text;html=1;align=center;verticalAlign=middle;resizable=0;points=[];autosize=1;strokeColor=none;fillColor=none;" vertex="1" parent="1">
          <mxGeometry x="455" y="400" width="40" height="30" as="geometry" />
        </mxCell>
        <mxCell id="xqQnOmF76TvjBO3x-wyy-18" value="1 1" style="text;html=1;align=center;verticalAlign=middle;resizable=0;points=[];autosize=1;strokeColor=none;fillColor=none;" vertex="1" parent="1">
          <mxGeometry x="260" y="400" width="40" height="30" as="geometry" />
        </mxCell>
        <mxCell id="xqQnOmF76TvjBO3x-wyy-19" value="horas_trabajadas" style="ellipse;whiteSpace=wrap;html=1;align=center;fontStyle=0" vertex="1" parent="1">
          <mxGeometry x="690" y="320" width="100" height="40" as="geometry" />
        </mxCell>
        <mxCell id="xqQnOmF76TvjBO3x-wyy-20" value="0 N" style="text;html=1;align=center;verticalAlign=middle;resizable=0;points=[];autosize=1;strokeColor=none;fillColor=none;" vertex="1" parent="1">
          <mxGeometry x="455" y="210" width="40" height="30" as="geometry" />
        </mxCell>
        <mxCell id="xqQnOmF76TvjBO3x-wyy-21" value="N 1" style="text;html=1;align=center;verticalAlign=middle;resizable=0;points=[];autosize=1;strokeColor=none;fillColor=none;" vertex="1" parent="1">
          <mxGeometry x="260" y="210" width="40" height="30" as="geometry" />
        </mxCell>
        <mxCell id="xqQnOmF76TvjBO3x-wyy-22" value="N&lt;br&gt;1" style="text;html=1;align=center;verticalAlign=middle;resizable=0;points=[];autosize=1;strokeColor=none;fillColor=none;" vertex="1" parent="1">
          <mxGeometry x="555" y="260" width="30" height="40" as="geometry" />
        </mxCell>
        <mxCell id="xqQnOmF76TvjBO3x-wyy-23" value="1&lt;br&gt;N" style="text;html=1;align=center;verticalAlign=middle;resizable=0;points=[];autosize=1;strokeColor=none;fillColor=none;" vertex="1" parent="1">
          <mxGeometry x="555" y="370" width="30" height="40" as="geometry" />
        </mxCell>
      </root>
    </mxGraphModel>
  </diagram>
</mxfile>
